<svg width="637" height="23" viewBox="0 0 637 23" fill="none" xmlns="http://www.w3.org/2000/svg">
<g clip-path="url(#clip0_0_3331)">
<path d="M313.159 23.2C313.059 23.2 312.859 23.2 312.759 23.2C311.959 23.2 304.959 23.1 300.159 14.4C298.559 11.6 296.459 8.90002 294.559 7.50002L294.259 7.30002C291.859 5.40002 288.659 4.80002 285.759 5.70002C282.959 6.60002 280.859 8.80002 280.159 11.6C280.059 11.8 280.059 12 279.959 12.3C279.559 14.3 280.059 16.4 281.359 18.1C283.259 20.6 285.659 21.7 288.159 21.1C290.359 20.6 292.059 18.8 292.559 16.5C292.759 15.3 292.459 14.1 291.759 13.1C290.659 11.6 289.159 10.9 287.759 11.2C286.459 11.5 285.459 12.5 285.259 13.9C284.959 15.3 285.859 16.6 287.259 16.9L286.859 18.8C284.459 18.3 282.859 16 283.359 13.6C283.759 11.5 285.359 9.90002 287.359 9.40002C289.559 8.90002 291.859 9.90002 293.359 12C294.459 13.4 294.859 15.2 294.559 16.9C293.959 19.9 291.659 22.3 288.759 23C285.559 23.7 282.259 22.3 279.959 19.3C278.359 17.1 277.659 14.5 278.159 11.9C278.259 11.6 278.259 11.4 278.359 11.1C279.259 7.60003 281.759 5.00003 285.259 3.90002C288.859 2.70002 292.659 3.50003 295.659 5.80002L295.959 6.00002C298.059 7.60002 300.359 10.4 302.059 13.5C306.459 21.5 312.859 21.3 312.959 21.3H313.059H313.159C314.259 21.4 315.359 21 316.159 20.3C317.059 19.6 317.559 18.5 317.659 17.4C317.759 15.6 316.459 14.1 314.759 13.9C314.159 13.8 313.459 14.1 313.059 14.6C312.359 15.3 312.059 16.1 312.359 16.9C312.559 17.5 313.159 18 313.759 18L313.559 19.9C312.159 19.8 310.959 18.8 310.459 17.5C309.959 16 310.359 14.4 311.659 13.2C312.559 12.3 313.759 11.9 314.959 12C317.759 12.2 319.859 14.7 319.559 17.6C319.459 19.3 318.659 20.8 317.359 21.9C316.059 22.7 314.659 23.2 313.159 23.2Z" fill="#560505"/>
<path d="M323.459 23.1999C322.059 23.1999 320.659 22.6999 319.559 21.6999C318.259 20.5999 317.559 19.0999 317.359 17.3999C317.159 14.5999 319.259 12.0999 321.959 11.7999C323.159 11.6999 324.359 12.0999 325.259 12.9999C326.559 14.1999 326.959 15.8999 326.459 17.2999C325.959 18.5999 324.759 19.5999 323.359 19.6999L323.159 17.7999C323.759 17.6999 324.359 17.2999 324.559 16.6999C324.859 15.9999 324.559 15.0999 323.859 14.3999C323.359 13.8999 322.759 13.6999 322.159 13.6999C320.459 13.8999 319.159 15.3999 319.259 17.1999C319.359 18.3999 319.859 19.3999 320.759 20.0999C321.559 20.7999 322.659 21.1999 323.759 21.0999H323.859H323.959C324.259 21.0999 330.459 21.1999 334.859 13.2999C336.559 10.1999 338.859 7.39988 340.959 5.79988L341.159 5.59988C344.059 3.19988 347.959 2.49988 351.559 3.69988C355.059 4.79988 357.559 7.49988 358.459 10.8999C358.559 11.1999 358.559 11.3999 358.659 11.6999C359.159 14.2999 358.559 16.8999 356.859 19.0999C354.559 22.1999 351.259 23.5999 348.059 22.7999C345.059 22.0999 342.759 19.6999 342.259 16.6999C341.959 14.9999 342.359 13.1999 343.459 11.7999C345.059 9.69988 347.259 8.69988 349.459 9.19988C351.459 9.69988 353.059 11.2999 353.459 13.3999C353.959 15.7999 352.359 18.1999 349.959 18.5999L349.559 16.6999C350.859 16.3999 351.759 15.0999 351.559 13.6999C351.259 12.3999 350.259 11.2999 349.059 10.9999C347.659 10.6999 346.159 11.2999 345.059 12.8999C344.359 13.8999 344.059 15.0999 344.259 16.2999C344.659 18.5999 346.459 20.3999 348.659 20.8999C351.159 21.4999 353.559 20.3999 355.459 17.8999C356.759 16.1999 357.259 14.0999 356.859 12.0999C356.859 11.8999 356.759 11.5999 356.659 11.3999C355.959 8.59988 353.859 6.39988 351.059 5.49988C348.159 4.49988 344.959 5.09988 342.559 7.09988L342.259 7.29988C340.359 8.69988 338.259 11.3999 336.659 14.1999C331.859 22.8999 324.859 22.9999 324.059 22.9999C323.759 23.1999 323.659 23.1999 323.459 23.1999Z" fill="#560505"/>
<path d="M318.359 12.3C316.759 12.3 315.559 11.3 315.259 9.7C314.559 6.1 317.459 1.5 317.559 1.3L318.359 0L319.159 1.3C319.259 1.5 322.159 6.1 321.459 9.7C321.159 11.2 319.859 12.3 318.359 12.3ZM317.159 9.3C317.259 10.1 317.859 10.3 318.359 10.3C318.859 10.3 319.359 10 319.559 9.3C319.859 7.6 319.059 5.3 318.359 3.9C317.659 5.3 316.859 7.6 317.159 9.3Z" fill="#560505"/>
<path d="M628.3 14.8C627.9 14.8 627.5 14.8 627.1 14.7C625.6 14.4 624.5 13.1 624.5 11.6C624.5 10 625.5 8.80001 627.1 8.50001C630.7 7.80001 635.2 10.7 635.4 10.8L636.7 11.6L635.4 12.4C635.2 12.5 631.6 14.8 628.3 14.8ZM627.5 10.3C626.8 10.4 626.5 11 626.5 11.5C626.5 12 626.8 12.6 627.5 12.7C629.1 13 631.3 12.2 632.9 11.5C631.3 10.8 629.2 10 627.5 10.3Z" fill="#560505"/>
<path d="M620.9 12.5002C620.8 12.5002 620.7 12.5002 620.7 12.5002C620.1 12.5002 616.5 12.3002 614 7.90017C613.2 6.60017 612.2 5.30017 611.3 4.60017L611.1 4.50017C610 3.60017 608.6 3.40017 607.3 3.80017C606.1 4.20017 605.2 5.10017 604.8 6.40017C604.8 6.50017 604.8 6.60017 604.7 6.70017C604.5 7.60017 604.8 8.50017 605.3 9.20017C606.1 10.3002 607.2 10.8002 608.2 10.5002C609.1 10.3002 609.8 9.50017 610 8.60017C610.1 8.20017 610 7.70017 609.7 7.30017C609.3 6.70017 608.7 6.40017 608.2 6.60017C607.7 6.70017 607.4 7.10017 607.3 7.50017C607.2 7.90017 607.5 8.30017 607.9 8.40017L607.5 10.3002C606.1 10.0002 605.1 8.60017 605.4 7.10017C605.6 5.90017 606.6 4.90017 607.8 4.60017C609.1 4.30017 610.4 4.90017 611.3 6.10017C611.9 6.90017 612.1 8.00017 612 8.90017C611.7 10.6002 610.4 11.9002 608.7 12.3002C606.9 12.7002 605.1 11.9002 603.8 10.3002C602.9 9.10017 602.6 7.60017 602.8 6.20017C602.8 6.10017 602.9 5.90017 602.9 5.80017C603.4 3.90017 604.8 2.50017 606.6 1.90017C608.5 1.30017 610.6 1.70017 612.2 2.90017L612.3 3.00017C613.4 3.80017 614.5 5.30017 615.4 6.90017C616.8 9.40017 618.5 10.2002 619.6 10.4002C619.2 10.1002 618.9 9.70017 618.7 9.30017C618.4 8.40017 618.6 7.40017 619.4 6.60017C619.9 6.10017 620.7 5.80017 621.4 5.90017C623 6.00017 624.3 7.50017 624.2 9.20017C624.1 10.2002 623.7 11.0002 623 11.7002C622.6 12.2002 621.8 12.5002 620.9 12.5002ZM621.5 7.90017C621.4 7.90017 621.2 8.00017 621.1 8.10017C620.9 8.30017 620.8 8.50017 620.9 8.70017C620.9 8.80017 621 8.90017 621.2 8.90017L621.1 10.6002C621.5 10.6002 621.8 10.5002 622.1 10.2002C622.4 9.90017 622.6 9.50017 622.7 9.10017C622.5 8.50017 622.1 7.90017 621.5 7.90017Z" fill="#560505"/>
<path d="M608.7 21.5C608.1 21.5 607.5 21.4 606.8 21.2C605 20.6 603.6 19.1 603.1 17.3C603.1 17.2 603 17 603 16.9C602.7 15.5 603.1 14 604 12.8C605.3 11.1 607.1 10.3 608.9 10.8C610.6 11.2 611.8 12.5 612.2 14.2C612.4 15.2 612.1 16.2 611.5 17C610.6 18.2 609.3 18.8 608 18.5C606.8 18.2 605.9 17.3 605.6 16C605.3 14.5 606.3 13.1 607.7 12.8L608.1 14.7C607.7 14.8 607.4 15.2 607.5 15.6C607.6 16.1 607.9 16.4 608.4 16.5C608.9 16.6 609.5 16.4 609.9 15.8C610.2 15.4 610.3 14.9 610.2 14.5C610 13.6 609.3 12.8 608.4 12.6C607.4 12.4 606.3 12.8 605.5 13.9C604.9 14.7 604.7 15.5 604.9 16.4C604.9 16.5 604.9 16.6 605 16.7C605.3 17.9 606.2 18.9 607.5 19.3C608.8 19.7 610.2 19.5 611.3 18.6L611.4 18.5C612.3 17.8 613.3 16.6 614.1 15.2C616.6 10.8 620.2 10.6 620.8 10.6C621.7 10.5 622.6 10.8 623.3 11.4C624 12 624.5 12.9 624.5 13.9C624.6 15.6 623.4 17 621.7 17.2C621 17.3 620.2 17 619.7 16.5C618.9 15.7 618.7 14.8 619 13.8C619.2 13.3 619.5 12.9 619.9 12.7C618.9 12.9 617.1 13.7 615.8 16.2C614.9 17.8 613.7 19.2 612.6 20.1L612.5 20.2C611.4 21 610 21.5 608.7 21.5ZM621 12.5L621.1 14.2C620.9 14.2 620.8 14.3 620.8 14.4C620.7 14.6 620.8 14.8 621 15C621.1 15.1 621.3 15.2 621.5 15.2C622.1 15.1 622.5 14.6 622.5 14C622.5 13.6 622.3 13.2 621.9 12.9C621.7 12.7 621.3 12.5 621 12.5Z" fill="#560505"/>
<path d="M607.6 10.6001H357.8V12.5001H607.6V10.6001Z" fill="#560505"/>
<path d="M8.3 14.8C5 14.8 1.4 12.5 1.2 12.4L0 11.6L1.3 10.8C1.5 10.7 6 7.80001 9.6 8.50001C11.1 8.80001 12.2 10.1 12.2 11.6C12.2 13.2 11.2 14.4 9.6 14.7C9.1 14.8 8.7 14.8 8.3 14.8ZM3.8 11.6C5.3 12.4 7.5 13.1 9.2 12.8C9.9 12.7 10.2 12.1 10.2 11.6C10.2 11.1 9.9 10.5 9.2 10.4C7.5 10 5.3 10.8 3.8 11.6Z" fill="#560505"/>
<path d="M15.7 12.5C14.9 12.5 14.1 12.2 13.4 11.7C12.7 11.1 12.2 10.2 12.2 9.20001C12.1 7.50001 13.3 6.10001 15 5.90001C15.7 5.80001 16.5 6.10001 17 6.60001C17.8 7.40001 18 8.30001 17.7 9.30001C17.5 9.80001 17.2 10.2 16.8 10.4C17.8 10.2 19.6 9.40001 20.9 6.90001C21.8 5.30001 23 3.90001 24.1 3.00001H24.2C25.8 1.70001 27.9 1.30001 29.8 2.00001C31.6 2.60001 33 4.10001 33.5 5.90001C33.5 6.00001 33.6 6.20001 33.6 6.30001C33.9 7.70001 33.5 9.20001 32.6 10.4C31.3 12.1 29.5 12.9 27.7 12.4C26 12 24.8 10.7 24.4 9.00001C24.2 8.00001 24.5 7.00001 25.1 6.20001C26 5.00001 27.3 4.40001 28.6 4.70001C29.8 5.00001 30.7 5.90001 31 7.20001C31.3 8.70001 30.3 10.1 28.9 10.4L28.5 8.50001C28.9 8.40001 29.2 8.00001 29.1 7.60001C29 7.10001 28.7 6.80001 28.2 6.70001C27.7 6.60001 27.1 6.80001 26.7 7.40001C26.4 7.80001 26.3 8.30001 26.4 8.70001C26.6 9.60001 27.3 10.4 28.2 10.6C29.2 10.8 30.3 10.4 31.1 9.30001C31.7 8.50001 31.9 7.70001 31.7 6.80001C31.7 6.70001 31.7 6.60001 31.6 6.50001C31.3 5.30001 30.4 4.30001 29.1 3.90001C27.8 3.50001 26.4 3.70001 25.3 4.60001L25.2 4.70001C24.3 5.40001 23.3 6.60001 22.5 8.00001C20 12.4 16.4 12.6 15.8 12.6C15.9 12.5 15.8 12.5 15.7 12.5ZM15.2 7.90001C14.6 8.00001 14.1 8.50001 14.2 9.10001C14.2 9.50001 14.4 9.90001 14.8 10.2C15.1 10.4 15.4 10.6 15.8 10.6L15.7 8.90001C15.9 8.90001 16 8.80001 16 8.70001C16.1 8.50001 16 8.30001 15.8 8.10001C15.5 8.00001 15.3 7.90001 15.2 7.90001Z" fill="#560505"/>
<path d="M28 21.4999C26.7 21.4999 25.3 20.9999 24.3 20.1999L24.1 19.9999C23 19.1999 21.9 17.6999 21 16.0999C19.6 13.5999 17.9 12.7999 16.8 12.5999C17.2 12.8999 17.5 13.2999 17.7 13.6999C18 14.5999 17.8 15.5999 17 16.3999C16.5 16.8999 15.7 17.1999 15 17.0999C13.4 16.9999 12.1 15.4999 12.2 13.7999C12.3 12.7999 12.7 11.9999 13.4 11.2999C14.1 10.6999 15 10.3999 15.9 10.4999C16.5 10.4999 20.1 10.6999 22.6 15.0999C23.4 16.3999 24.4 17.6999 25.3 18.3999L25.5 18.4999C26.6 19.3999 28 19.5999 29.3 19.1999C30.5 18.7999 31.4 17.8999 31.8 16.5999C31.8 16.4999 31.8 16.3999 31.9 16.2999C32.1 15.3999 31.8 14.4999 31.3 13.7999C30.5 12.6999 29.4 12.1999 28.4 12.4999C27.5 12.6999 26.8 13.4999 26.6 14.3999C26.5 14.7999 26.6 15.2999 26.9 15.6999C27.3 16.2999 27.9 16.5999 28.4 16.3999C28.9 16.2999 29.2 15.8999 29.3 15.4999C29.4 15.0999 29.1 14.6999 28.7 14.5999L29.1 12.6999C30.5 12.9999 31.5 14.3999 31.2 15.8999C31 17.0999 30 18.0999 28.8 18.3999C27.5 18.6999 26.2 18.0999 25.3 16.8999C24.7 16.0999 24.5 14.9999 24.6 14.0999C24.9 12.3999 26.2 11.0999 27.9 10.6999C29.7 10.2999 31.5 11.0999 32.8 12.6999C33.7 13.8999 34 15.3999 33.8 16.7999C33.8 16.8999 33.7 17.0999 33.7 17.1999C33.2 19.0999 31.8 20.4999 30 21.0999C29.2 21.3999 28.6 21.4999 28 21.4999ZM15.7 12.4999C15.3 12.4999 15 12.5999 14.7 12.8999C14.4 13.1999 14.2 13.5999 14.1 13.9999C14.1 14.5999 14.5 15.0999 15.1 15.1999C15.3 15.1999 15.4 15.0999 15.6 14.9999C15.8 14.7999 15.9 14.5999 15.8 14.3999C15.8 14.2999 15.7 14.1999 15.5 14.1999L15.7 12.4999Z" fill="#560505"/>
<path d="M278.9 10.6001H29.1V12.5001H278.9V10.6001Z" fill="#560505"/>
</g>
<defs>
<clipPath id="clip0_0_3331">
<rect width="637" height="23" fill="white"/>
</clipPath>
</defs>
</svg>
